<?xml version="1.0" encoding="UTF-8"?>
<!DOCTYPE svg PUBLIC "-//W3C//DTD SVG 1.1//EN" "http://www.w3.org/Graphics/SVG/1.1/DTD/svg11.dtd">
<!-- Creator: CorelDRAW -->
<svg xmlns="http://www.w3.org/2000/svg" xml:space="preserve" width="99.6656mm" height="100.762mm" version="1.1" style="shape-rendering:geometricPrecision; text-rendering:geometricPrecision; image-rendering:optimizeQuality; fill-rule:evenodd; clip-rule:evenodd"
viewBox="0 0 745.99 754.2"
 xmlns:xlink="http://www.w3.org/1999/xlink"
 xmlns:xodm="http://www.corel.com/coreldraw/odm/2003">
 <defs>
  <style type="text/css">
   <![CDATA[
    .fil1 {fill:none}
    .fil4 {fill:#0A6BBF}
    .fil0 {fill:#0B1D34}
    .fil2 {fill:#21A365}
    .fil3 {fill:#FF8A00}
   ]]>
  </style>
 </defs>
 <g id="Camada_x0020_1">
  <metadata id="CorelCorpID_0Corel-Layer"/>
  <g id="_1618165725776">
   <path class="fil0" d="M398.67 269.83c58.91,0 106.66,47.75 106.66,106.66 0,58.91 -47.75,106.66 -106.66,106.66 -58.91,0 -106.66,-47.75 -106.66,-106.66 0,-58.91 47.75,-106.66 106.66,-106.66z"/>
   <path class="fil1" d="M172.14 536.93c-0.71,-0.99 -1.41,-1.99 -2.1,-2.99"/>
   <path class="fil2" d="M667.54 368.93c-9.54,-124.05 -91.57,-224.94 -207.8,-257.17l18.76 -73.16c149.61,43.93 259.63,173.32 267.49,335.2l-78.46 -4.86z"/>
   <path class="fil0" d="M114.12 377.99c8.52,0 15.42,6.85 15.42,15.31 0,8.45 -6.9,15.31 -15.42,15.31 -8.52,0 -15.42,-6.85 -15.42,-15.31 0,-8.45 6.9,-15.31 15.42,-15.31z"/>
   <path class="fil0" d="M15.42 377.07c8.52,0 15.42,6.85 15.42,15.31 0,8.45 -6.9,15.31 -15.42,15.31 -8.52,0 -15.42,-6.85 -15.42,-15.31 0,-8.45 6.9,-15.31 15.42,-15.31z"/>
   <path class="fil0" d="M69.16 486.52c8.52,0 15.42,6.85 15.42,15.31 0,8.45 -6.9,15.31 -15.42,15.31 -8.52,0 -15.42,-6.85 -15.42,-15.31 0,-8.45 6.9,-15.31 15.42,-15.31z"/>
   <path class="fil0" d="M167.21 640.42c8.52,0 15.42,6.85 15.42,15.31 0,8.45 -6.9,15.31 -15.42,15.31 -8.52,0 -15.42,-6.85 -15.42,-15.31 0,-8.45 6.9,-15.31 15.42,-15.31z"/>
   <path class="fil0" d="M265.56 606c8.52,0 15.42,6.85 15.42,15.31 0,8.45 -6.9,15.31 -15.42,15.31 -8.52,0 -15.42,-6.85 -15.42,-15.31 0,-8.45 6.9,-15.31 15.42,-15.31z"/>
   <path class="fil0" d="M205.5 570.84c6.2,0 11.23,5.03 11.23,11.23 0,6.2 -5.03,11.23 -11.23,11.23 -6.2,0 -11.23,-5.03 -11.23,-11.23 0,-6.2 5.03,-11.23 11.23,-11.23z"/>
   <path class="fil0" d="M85.43 547.04c6.2,0 11.23,5.03 11.23,11.23 0,6.2 -5.03,11.23 -11.23,11.23 -6.2,0 -11.23,-5.03 -11.23,-11.23 0,-6.2 5.03,-11.23 11.23,-11.23z"/>
   <path class="fil0" d="M138.17 471.14c4.13,0 7.48,3.35 7.48,7.48 0,4.13 -3.35,7.48 -7.48,7.48 -4.13,0 -7.48,-3.35 -7.48,-7.48 0,-4.13 3.35,-7.48 7.48,-7.48z"/>
   <path class="fil0" d="M163.59 531.36c5.17,0 9.36,4.19 9.36,9.36 0,5.17 -4.19,9.36 -9.36,9.36 -5.17,0 -9.36,-4.19 -9.36,-9.36 0,-5.17 4.19,-9.36 9.36,-9.36z"/>
   <path class="fil0" d="M251.87 703.54c5.17,0 9.36,4.19 9.36,9.36 0,5.17 -4.19,9.36 -9.36,9.36 -5.17,0 -9.36,-4.19 -9.36,-9.36 0,-5.17 4.19,-9.36 9.36,-9.36z"/>
   <path class="fil0" d="M70.56 291.23c5.17,0 9.36,4.19 9.36,9.36 0,5.17 -4.19,9.36 -9.36,9.36 -5.17,0 -9.36,-4.19 -9.36,-9.36 0,-5.17 4.19,-9.36 9.36,-9.36z"/>
   <path class="fil0" d="M27.04 266.72c6.2,0 11.23,5.03 11.23,11.23 0,6.2 -5.03,11.23 -11.23,11.23 -6.2,0 -11.23,-5.03 -11.23,-11.23 0,-6.2 5.03,-11.23 11.23,-11.23z"/>
   <path class="fil3" d="M343.12 672.44c163.74,19.32 301.72,-71.95 323.07,-244.63l77.76 4.82c-10.29,95.86 -60.06,187.7 -134.16,247.25 -75.87,60.97 -177.11,88.28 -276.66,67.36l9.99 -74.8z"/>
   <path class="fil4" d="M91.03 188.7l67.32 30.6c27,-45.72 65.77,-86.71 112.78,-112.01 41.42,-22.3 89.34,-31.69 139.51,-31.69l0 -75.6c-138.16,0.27 -242.7,59.04 -319.61,188.7z"/>
  </g>
 </g>
</svg>
